# This file uses centimeters as units for non-parametric coordinates.

mtllib netje.mtl
g default
v 6.637403 5.223482 1.558196
v 6.592463 6.489433 1.558196
v 6.622176 5.223482 -0.905576
v 6.577238 6.489433 -0.884978
v 7.064006 5.223482 -0.299861
v 7.019067 6.489433 -0.299861
v 7.064006 5.223482 0.912459
v 7.019067 6.489433 0.912459
v 7.019067 6.489433 -0.002891
v 7.064006 5.223482 -0.023658
v 7.019067 6.489433 0.659146
v 7.064006 5.223482 0.668293
v 6.807930 5.717753 -0.923914
v 6.797896 5.996344 -0.923914
v 7.246580 5.915736 -0.295771
v 7.247881 5.639006 -0.305410
v 7.246650 5.915450 -0.014570
v 7.247926 5.639197 -0.014570
v 7.246650 5.915450 0.664290
v 7.247926 5.639197 0.664290
v 7.246607 5.915627 0.907768
v 7.247911 5.639132 0.918822
v 6.813291 5.995720 1.558196
v 6.823137 5.717660 1.558196
v 6.740282 6.207621 -0.923914
v 7.187978 6.153638 -0.297467
v 7.186994 6.157640 -0.009642
v 7.184695 6.166969 0.662036
v 7.183847 6.170411 0.909851
v 6.745976 6.242576 1.558196
v 6.751967 5.441614 -0.923914
v 7.180730 5.355131 -0.301619
v 7.181491 5.358349 -0.020710
v 7.183353 5.366220 0.666919
v 7.184023 5.369055 0.914687
v 6.773061 5.470573 1.558196
v 6.822546 6.489433 -0.752375
v 6.973748 6.126566 -0.723530
v 7.021767 5.983561 -0.803592
v 7.030462 5.705252 -0.805017
v 6.983428 5.503523 -0.731249
v 6.864320 5.223482 -0.759663
v 6.925280 6.489433 -0.515817
v 7.076678 6.105696 -0.618450
v 7.123796 5.952780 -0.573122
v 7.128828 5.675281 -0.578982
v 7.074530 5.482673 -0.626139
v 6.957020 5.223482 -0.546210
v 6.938060 6.489433 1.126590
v 7.103208 6.106077 1.163528
v 7.170589 5.938424 1.104996
v 7.177312 5.660579 1.105024
v 7.111953 5.505041 1.160758
v 6.983847 5.223482 1.124349
v 6.830255 6.489433 1.411561
v 6.990440 6.097551 1.317794
v 7.059755 5.971670 1.392554
v 7.069232 5.693412 1.390082
v 7.012567 5.510818 1.333482
v 6.879695 5.223482 1.399663
v 7.080818 5.952780 -0.573122
v 7.085849 5.675281 -0.578982
v 7.204903 5.639006 -0.305410
v 7.203601 5.915736 -0.295771
v 7.204948 5.639197 -0.014570
v 7.203672 5.915450 -0.014570
v 7.204948 5.639197 0.664290
v 7.203672 5.915450 0.664290
v 7.204932 5.639132 0.918822
v 7.203629 5.915627 0.907768
v 7.016776 5.971670 1.392554
v 7.026253 5.693412 1.390082
v 6.780158 5.717660 1.558196
v 6.770313 5.995720 1.558196
v 6.882302 6.489433 -0.515817
v 7.033700 6.105696 -0.618450
v 7.145000 6.153638 -0.297467
v 6.976089 6.489433 -0.299861
v 7.141716 6.166969 0.662036
v 7.140868 6.170411 0.909851
v 6.976089 6.489433 0.912459
v 6.976089 6.489433 0.659146
v 6.787276 6.489433 1.411561
v 6.947461 6.097551 1.317794
v 6.702998 6.242576 1.558196
v 6.549485 6.489433 1.558196
v 7.144015 6.157640 -0.009642
v 6.976089 6.489433 -0.002891
v 7.031552 5.482673 -0.626139
v 7.137752 5.355131 -0.301619
v 7.138512 5.358349 -0.020710
v 7.140374 5.366220 0.666919
v 7.141045 5.369055 0.914687
v 6.969589 5.510818 1.333482
v 6.730083 5.470573 1.558196
v 7.021027 5.223482 -0.299861
v 6.914042 5.223482 -0.546210
v 7.021027 5.223482 -0.023658
v 7.021027 5.223482 0.668293
v 7.021027 5.223482 0.912459
v 6.594424 5.223482 1.558196
v 6.836716 5.223482 1.399663
v 6.697304 6.207621 -0.923914
v 6.930769 6.126566 -0.723530
v 6.779568 6.489433 -0.752375
v 6.534259 6.489433 -0.884978
v 6.978789 5.983561 -0.803592
v 6.754917 5.996344 -0.923914
v 6.764952 5.717753 -0.923914
v 6.987483 5.705252 -0.805017
v 6.708988 5.441614 -0.923914
v 6.940449 5.503523 -0.731249
v 6.821341 5.223482 -0.759663
v 6.579198 5.223482 -0.905576
v 7.060229 6.106077 1.163528
v 6.895081 6.489433 1.126590
v 7.127611 5.938424 1.104996
v 7.134333 5.660579 1.105024
v 7.068974 5.505041 1.160758
v 6.940868 5.223482 1.124349
vt 0.095623 0.758666
vt 0.908126 0.758796
vt 0.094722 0.659645
vt 0.505848 0.357807
vt 0.144670 0.646604
vt 0.146262 0.745346
vt 0.421133 0.396515
vt 0.857390 0.745949
vt 0.858597 0.647121
vt 0.197678 0.646761
vt 0.382312 0.396515
vt 0.197514 0.745330
vt 0.467027 0.357807
vt 0.321407 0.646967
vt 0.321243 0.745536
vt 0.367798 0.647021
vt 0.872528 0.388131
vt 0.365619 0.745673
vt 0.963401 0.346956
vt 0.453840 0.766100
vt 0.926896 0.346956
vt 0.908639 0.659700
vt 0.453559 0.666803
vt 0.836022 0.388131
vt 0.484050 0.675880
vt 0.483880 0.775107
vt 0.105641 0.950464
vt 0.087245 0.813285
vt 0.145780 0.830319
vt 0.806148 0.746131
vt 0.145052 0.950386
vt 0.320649 0.835371
vt 0.365813 0.836676
vt 0.366009 0.950754
vt 0.319840 0.950678
vt 0.805600 0.647483
vt 0.505848 0.140514
vt 0.456872 0.951193
vt 0.440102 0.811098
vt 0.682444 0.746816
vt 0.681896 0.648168
vt 0.963401 0.300791
vt 0.505848 0.185917
vt 0.638077 0.747125
vt 0.635514 0.648402
vt 0.483697 0.863287
vt 0.483467 0.951600
vt 0.926896 0.300791
vt 0.467027 0.185917
vt 0.198236 0.831835
vt 0.199178 0.950477
vt 0.086211 0.590991
vt 0.145492 0.545421
vt 0.963401 0.185139
vt 0.467027 0.140514
vt 0.196689 0.546653
vt 0.322012 0.549667
vt 0.367169 0.550753
vt 0.443320 0.601722
vt 0.926896 0.185139
vt 0.550036 0.767472
vt 0.520148 0.776025
vt 0.519587 0.676739
vt 0.549926 0.668113
vt 0.898946 0.950327
vt 0.859500 0.950622
vt 0.858229 0.830853
vt 0.916736 0.813317
vt 0.683415 0.836579
vt 0.684746 0.951590
vt 0.638587 0.951845
vt 0.638265 0.838057
vt 0.547828 0.952193
vt 0.521347 0.952145
vt 0.520704 0.864120
vt 0.563978 0.812291
vt 0.805385 0.950922
vt 0.805789 0.832572
vt 0.857412 0.545699
vt 0.916906 0.590829
vt 0.806229 0.547133
vt 0.680941 0.550638
vt 0.635797 0.551902
vt 0.519148 0.588464
vt 0.559936 0.602806
vt 0.856948 0.498594
vt 0.901946 0.498257
vt 0.806617 0.498872
vt 0.680528 0.499571
vt 0.636035 0.499817
vt 0.518795 0.500117
vt 0.547440 0.500157
vt 0.972938 0.849128
vt 0.966565 0.949667
vt 0.942155 0.950003
vt 0.936029 0.820579
vt 0.972462 0.773730
vt 0.950287 0.769471
vt 0.949986 0.670094
vt 0.971901 0.674254
vt 0.971410 0.575600
vt 0.936192 0.598093
vt 0.940935 0.497965
vt 0.967767 0.497618
vt 0.599649 0.951995
vt 0.591993 0.815273
vt 0.602259 0.755402
vt 0.601697 0.656190
vt 0.591299 0.600650
vt 0.597504 0.499965
vt 0.520191 0.775989
vt 0.519630 0.676703
vt 0.521390 0.952110
vt 0.520747 0.864085
vt 0.519191 0.588428
vt 0.518838 0.500081
vt 0.972981 0.849093
vt 0.966608 0.949631
vt 0.972505 0.773694
vt 0.971944 0.674219
vt 0.484169 0.587795
vt 0.145826 0.498627
vt 0.100868 0.498715
vt 0.196167 0.498711
vt 0.971453 0.575565
vt 0.967810 0.497582
vt 0.120513 0.024774
vt 0.335300 0.051056
vt 0.296479 0.051056
vt 0.081692 0.024774
vt 0.067939 0.462682
vt 0.289517 0.438915
vt 0.505848 0.304579
vt 0.467027 0.304579
vt 0.432677 0.102134
vt 0.322281 0.498921
vt 0.393856 0.102134
vt 0.757282 0.423807
vt 0.366783 0.498995
vt 0.963401 0.144329
vt 0.926896 0.144329
vt 0.806848 0.062898
vt 0.601045 0.036400
vt 0.564540 0.036400
vt 0.551607 0.448195
vt 0.770342 0.062898
vt 0.328338 0.438915
vt 0.895314 0.108914
vt 0.858808 0.108914
vt 0.484241 0.499840
vt 0.455480 0.499424
vt 0.031327 0.850071
vt 0.068025 0.820856
vt 0.411921 0.599392
vt 0.401707 0.654772
vt 0.412066 0.813856
vt 0.401534 0.753917
vt 0.588112 0.448195
vt 0.106760 0.462682
vt 0.062470 0.950548
vt 0.038167 0.950881
vt 0.031483 0.774600
vt 0.053544 0.769734
vt 0.793788 0.423807
vt 0.031654 0.675183
vt 0.053454 0.670420
vt 0.031786 0.576742
vt 0.066992 0.598537
vt 0.061913 0.498792
vt 0.035186 0.499116
vt 0.412042 0.813921
vt 0.404992 0.950943
vt 0.401510 0.753982
vt 0.401683 0.654837
vt 0.411898 0.599457
vt 0.405358 0.499182
vt 0.095647 0.758601
vt 0.094746 0.659580
vt 0.453864 0.766035
vt 0.453583 0.666737
vt 0.086235 0.590926
vt 0.443344 0.601657
vt 0.087269 0.813219
vt 0.440125 0.811032
vt 0.053567 0.769669
vt 0.068048 0.820790
vt 0.053477 0.670355
vt 0.067015 0.598472
vn -0.917279 -0.119662 0.379842
vn -0.912764 0.093322 0.397684
vn -0.974860 0.101909 0.198150
vn -0.976858 -0.103388 0.187240
vn -0.993226 0.116197 0.000030
vn -0.993163 -0.116733 0.000032
vn -0.993299 0.115575 -0.000016
vn -0.993055 -0.117653 -0.000017
vn -0.980874 0.109086 -0.161201
vn -0.981718 -0.114961 -0.151704
vn -0.604003 -0.126758 -0.786837
vn -0.588916 0.094465 -0.802654
vn -0.592962 0.114360 -0.797068
vn -0.628278 -0.204868 -0.750530
vn -0.821563 -0.397900 0.408301
vn -0.848580 -0.363558 0.384367
vn -0.918155 -0.355996 0.173951
vn -0.872872 -0.440465 0.209964
vn -0.929574 -0.368635 0.000971
vn -0.917015 -0.363331 -0.164543
vn -0.875306 -0.438359 -0.204162
vn -0.890390 -0.455196 0.001641
vn -0.726507 -0.253187 -0.638814
vn -0.768406 -0.328494 -0.549221
vn -0.654116 -0.243322 -0.716189
vn -0.649664 -0.211885 -0.730097
vn -0.929940 -0.367711 0.000963
vn -0.891473 -0.453070 0.001623
vn -0.829428 0.368656 0.419693
vn -0.900989 0.380877 0.207731
vn -0.913880 0.405984 -0.001087
vn -0.914553 0.404465 -0.001076
vn -0.898898 0.394792 -0.190056
vn -0.738335 0.305925 -0.601059
vn -0.617332 0.227247 -0.753166
vn -0.764214 0.586353 0.268640
vn -0.770172 0.460567 0.441263
vn -0.758039 0.652204 -0.002708
vn -0.763093 0.646284 -0.002664
vn -0.790048 0.553469 -0.263622
vn -0.618693 0.217382 -0.754960
vn -0.698538 0.266051 -0.664275
vn -0.580161 -0.302600 0.756205
vn -0.708518 -0.353366 0.610847
vn -0.655359 -0.321875 0.683301
vn -0.578791 -0.294035 0.760621
vn -0.539637 -0.185288 0.821255
vn -0.519557 -0.130192 0.844459
vn -0.527688 0.119972 0.840923
vn -0.521114 0.101684 0.847408
vn -0.577993 0.266171 0.771412
vn -0.665711 0.311505 0.678081
vn -0.644837 0.310091 0.698590
vn -0.582624 0.275627 0.764578
vn -0.858588 -0.350580 -0.374060
vn -0.844346 -0.357618 -0.398986
vn -0.926309 -0.146777 -0.346998
vn -0.921785 0.113566 -0.370694
vn -0.841326 0.370830 -0.393262
vn -0.822601 0.409764 -0.394235
vn 0.917279 0.119662 -0.379843
vn 0.976858 0.103387 -0.187239
vn 0.974859 -0.101909 -0.198150
vn 0.912764 -0.093322 -0.397684
vn 0.993163 0.116733 -0.000032
vn 0.993226 -0.116196 -0.000030
vn 0.993055 0.117653 0.000017
vn 0.993299 -0.115574 0.000016
vn 0.981718 0.114961 0.151703
vn 0.980874 -0.109085 0.161201
vn 0.604003 0.126758 0.786837
vn 0.628278 0.204868 0.750530
vn 0.592963 -0.114360 0.797068
vn 0.588916 -0.094465 0.802654
vn 0.821563 0.397900 -0.408301
vn 0.872872 0.440465 -0.209965
vn 0.918155 0.355996 -0.173951
vn 0.848579 0.363558 -0.384368
vn 0.929574 0.368634 -0.000972
vn 0.890390 0.455196 -0.001641
vn 0.875305 0.438359 0.204161
vn 0.917015 0.363330 0.164542
vn 0.726507 0.253187 0.638815
vn 0.649663 0.211884 0.730098
vn 0.654115 0.243321 0.716190
vn 0.768406 0.328494 0.549221
vn 0.891473 0.453070 -0.001623
vn 0.929940 0.367711 -0.000963
vn 0.900989 -0.380877 -0.207731
vn 0.829428 -0.368656 -0.419692
vn 0.913880 -0.405984 0.001087
vn 0.914553 -0.404465 0.001076
vn 0.898898 -0.394792 0.190056
vn 0.617332 -0.227247 0.753166
vn 0.738335 -0.305925 0.601059
vn 0.764214 -0.586353 -0.268640
vn 0.770172 -0.460567 -0.441263
vn 0.758038 -0.652205 0.002708
vn 0.763092 -0.646285 0.002664
vn 0.790047 -0.553469 0.263623
vn 0.618693 -0.217382 0.754960
vn 0.698538 -0.266051 0.664275
vn 0.580161 0.302600 -0.756205
vn 0.578791 0.294034 -0.760621
vn 0.655359 0.321875 -0.683302
vn 0.708519 0.353366 -0.610847
vn 0.539637 0.185289 -0.821255
vn 0.519556 0.130193 -0.844459
vn 0.521113 -0.101684 -0.847409
vn 0.527688 -0.119972 -0.840923
vn 0.577993 -0.266171 -0.771413
vn 0.665711 -0.311505 -0.678081
vn 0.644837 -0.310091 -0.698590
vn 0.582624 -0.275627 -0.764578
vn 0.844346 0.357618 0.398985
vn 0.858588 0.350580 0.374059
vn 0.926309 0.146776 0.346999
vn 0.921785 -0.113565 0.370695
vn 0.841326 -0.370830 0.393262
vn 0.822601 -0.409764 0.394235
vn 0.000000 0.021111 -0.999777
vn 0.000000 0.021111 -0.999777
vn 0.000000 0.021111 -0.999777
vn 0.000000 0.021111 -0.999777
vn 0.000000 0.008883 -0.999961
vn 0.000000 0.008883 -0.999961
vn 0.000000 0.008883 -0.999961
vn 0.000000 0.008883 -0.999961
vn 0.000000 0.000000 1.000000
vn 0.000000 0.000000 1.000000
vn 0.000000 0.000000 1.000000
vn 0.000000 0.000000 1.000000
vn 0.000000 1.000000 0.000000
vn 0.000000 1.000000 0.000000
vn 0.000000 1.000000 0.000000
vn 0.000000 1.000000 0.000000
vn 0.000000 1.000000 0.000000
vn 0.000000 1.000000 0.000000
vn 0.000000 1.000000 0.000000
vn 0.000000 1.000000 0.000000
vn 0.000000 0.000000 1.000000
vn 0.000000 0.000000 1.000000
vn 0.000000 0.000000 1.000000
vn 0.000000 0.000000 1.000000
vn 0.000000 1.000000 0.000000
vn 0.000000 1.000000 0.000000
vn 0.000000 1.000000 0.000000
vn 0.000000 1.000000 0.000000
vn 0.000000 1.000000 0.000000
vn 0.000000 1.000000 0.000000
vn 0.000000 1.000000 0.000000
vn 0.000000 1.000000 0.000000
vn 0.000000 1.000000 0.000000
vn 0.000000 1.000000 0.000000
vn 0.000000 1.000000 0.000000
vn 0.000000 1.000000 0.000000
vn 0.000000 0.237814 -0.971311
vn 0.000000 0.237814 -0.971311
vn 0.000000 0.237814 -0.971311
vn 0.000000 0.237814 -0.971311
vn 0.000000 0.296079 -0.955164
vn 0.000000 0.296079 -0.955164
vn 0.000000 0.296079 -0.955164
vn 0.000000 0.296079 -0.955164
vn 0.000000 0.000000 1.000000
vn 0.000000 0.000000 1.000000
vn 0.000000 0.000000 1.000000
vn 0.000000 0.000000 1.000000
vn 0.000000 -0.284202 -0.958764
vn 0.000000 -0.284202 -0.958764
vn 0.000000 -0.284202 -0.958764
vn 0.000000 -0.284202 -0.958764
vn 0.000000 -0.510629 -0.859801
vn 0.000000 -0.510629 -0.859801
vn 0.000000 -0.510629 -0.859801
vn 0.000000 -0.510629 -0.859801
vn 0.000000 0.000000 1.000000
vn 0.000000 0.000000 1.000000
vn 0.000000 0.000000 1.000000
vn 0.000000 0.000000 1.000000
vn 0.000000 -1.000000 0.000000
vn 0.000000 -1.000000 0.000000
vn 0.000000 -1.000000 0.000000
vn 0.000000 -1.000000 0.000000
vn 0.000000 -1.000000 0.000000
vn 0.000000 -1.000000 0.000000
vn 0.000000 -1.000000 0.000000
vn 0.000000 -1.000000 0.000000
vn 0.000000 -1.000000 0.000000
vn 0.000000 -1.000000 0.000000
vn 0.000000 -1.000000 0.000000
vn 0.000000 -1.000000 0.000000
vn 0.000000 -1.000000 0.000000
vn 0.000000 -1.000000 0.000000
vn 0.000000 -1.000000 0.000000
vn 0.000000 -1.000000 0.000000
vn 0.000000 0.000000 1.000000
vn 0.000000 0.000000 1.000000
vn 0.000000 0.000000 1.000000
vn 0.000000 0.000000 1.000000
vn 0.000000 -1.000000 -0.000000
vn 0.000000 -1.000000 -0.000000
vn 0.000000 -1.000000 -0.000000
vn 0.000000 -1.000000 -0.000000
vn 0.000000 1.000000 0.000000
vn 0.000000 1.000000 0.000000
vn 0.000000 1.000000 0.000000
vn 0.000000 1.000000 0.000000
vn 0.000000 0.136864 -0.990590
vn 0.000000 0.136864 -0.990590
vn 0.000000 0.136864 -0.990590
vn 0.000000 0.136864 -0.990590
vn 0.000000 -0.488505 0.872561
vn 0.000000 -0.488505 0.872561
vn 0.000000 -0.488505 0.872561
vn 0.000000 -0.488505 0.872561
vn 0.000000 0.000000 -1.000000
vn 0.000000 0.000000 -1.000000
vn 0.000000 0.000000 -1.000000
vn 0.000000 0.000000 -1.000000
vn 0.000000 0.000000 -1.000000
vn 0.000000 0.000000 -1.000000
vn 0.000000 0.000000 -1.000000
vn 0.000000 0.000000 -1.000000
vn 0.000000 -0.005120 0.999987
vn 0.000000 -0.005120 0.999987
vn 0.000000 -0.005120 0.999987
vn 0.000000 -0.005120 0.999987
vn 0.000000 0.343435 0.939176
vn 0.000000 0.343435 0.939176
vn 0.000000 0.343435 0.939176
vn 0.000000 0.343435 0.939176
vn 0.000000 0.000000 -1.000000
vn 0.000000 0.000000 -1.000000
vn 0.000000 0.000000 -1.000000
vn 0.000000 0.000000 -1.000000
vn 0.000000 -0.083771 -0.996485
vn 0.000000 -0.083771 -0.996485
vn 0.000000 -0.083771 -0.996485
vn 0.000000 -0.083771 -0.996485
vn 0.000000 -1.000000 -0.000000
vn 0.000000 -1.000000 -0.000000
vn 0.000000 -1.000000 -0.000000
vn 0.000000 -1.000000 -0.000000
vn 0.000000 -0.980843 -0.194802
vn 0.000000 -0.980843 -0.194802
vn 0.000000 -0.980843 -0.194802
vn 0.000000 -0.980843 -0.194802
vn 0.000000 1.000000 0.000000
vn 0.000000 1.000000 0.000000
vn 0.000000 1.000000 0.000000
vn 0.000000 1.000000 0.000000
vn 0.000000 0.980889 0.194570
vn 0.000000 0.980889 0.194570
vn 0.000000 0.980889 0.194570
vn 0.000000 0.980889 0.194570
vn 0.000000 -1.000000 0.000000
vn 0.000000 -1.000000 0.000000
vn 0.000000 -1.000000 0.000000
vn 0.000000 -1.000000 0.000000
vn 0.000000 1.000000 0.000000
vn 0.000000 1.000000 0.000000
vn 0.000000 1.000000 0.000000
vn 0.000000 1.000000 0.000000
vn 0.000000 -0.329614 0.944116
vn 0.000000 -0.329614 0.944116
vn 0.000000 -0.329614 0.944116
vn 0.000000 -0.329614 0.944116
vn 0.000000 0.000099 1.000000
vn 0.000000 0.000099 1.000000
vn 0.000000 0.000099 1.000000
vn 0.000000 0.000099 1.000000
vn 0.000000 0.337324 0.941389
vn 0.000000 0.337324 0.941389
vn 0.000000 0.337324 0.941389
vn 0.000000 0.337324 0.941389
vn 0.000000 -1.000000 0.000000
vn 0.000000 -1.000000 0.000000
vn 0.000000 -1.000000 0.000000
vn 0.000000 -1.000000 0.000000
vn 0.000000 -0.998476 -0.055181
vn 0.000000 -0.998476 -0.055181
vn 0.000000 -0.998476 -0.055181
vn 0.000000 -0.998476 -0.055181
vn 0.000000 1.000000 0.000000
vn 0.000000 1.000000 0.000000
vn 0.000000 1.000000 0.000000
vn 0.000000 1.000000 0.000000
vn 0.000000 0.999441 -0.033427
vn 0.000000 0.999441 -0.033427
vn 0.000000 0.999441 -0.033427
vn 0.000000 0.999441 -0.033427
vn 0.000000 -1.000000 0.000000
vn 0.000000 -1.000000 0.000000
vn 0.000000 -1.000000 0.000000
vn 0.000000 -1.000000 0.000000
s 1
g netje
usemtl lambert6SG
f 61/1/1 62/3/2 63/5/3 64/6/4
f 64/6/4 63/5/3 65/10/5 66/12/6
f 66/12/6 65/10/5 67/14/7 68/15/8
f 68/15/8 67/14/7 69/16/9 70/18/10
f 71/20/11 72/23/12 73/25/13 74/26/14
f 75/27/15 76/28/16 77/29/17 78/31/18
f 79/32/19 80/33/20 81/34/21 82/35/22
f 83/38/23 84/39/24 85/46/25 86/47/26
f 77/29/17 87/50/27 88/51/28 78/31/18
f 87/50/27 79/32/19 82/35/22 88/51/28
f 62/3/2 89/52/29 90/53/30 63/5/3
f 90/53/30 91/56/31 65/10/5 63/5/3
f 91/56/31 92/57/32 67/14/7 65/10/5
f 92/57/32 93/58/33 69/16/9 67/14/7
f 72/23/12 94/59/34 95/121/35 73/25/13
f 76/28/16 61/1/1 64/6/4 77/29/17
f 64/6/4 66/12/6 87/50/27 77/29/17
f 66/12/6 68/15/8 79/32/19 87/50/27
f 68/15/8 70/18/10 80/33/20 79/32/19
f 84/39/24 71/20/11 74/26/14 85/46/25
f 96/122/36 90/53/30 89/52/29 97/123/37
f 98/124/38 91/56/31 90/53/30 96/122/36
f 99/136/39 92/57/32 91/56/31 98/124/38
f 100/139/40 93/58/33 92/57/32 99/136/39
f 101/150/41 95/121/35 94/59/34 102/151/42
f 103/152/43 104/153/44 105/160/45 106/161/46
f 108/162/47 107/163/48 104/153/44 103/152/43
f 108/162/47 109/165/49 110/166/50 107/163/48
f 111/167/51 112/168/52 110/166/50 109/165/49
f 113/169/53 112/168/52 111/167/51 114/170/54
f 105/160/45 104/153/44 76/28/16 75/27/15
f 97/123/37 89/52/29 112/168/52 113/169/53
f 80/33/20 115/171/55 116/172/56 81/34/21
f 70/18/10 117/173/57 115/171/55 80/33/20
f 70/18/10 69/16/9 118/174/58 117/173/57
f 93/58/33 119/175/59 118/174/58 69/16/9
f 120/176/60 119/175/59 93/58/33 100/139/40
f 116/172/56 115/171/55 84/39/24 83/38/23
f 102/151/42 94/59/34 119/175/59 120/176/60
s 6
f 45/2/61 15/8/62 16/9/63 46/22/64
f 15/8/62 17/30/65 18/36/66 16/9/63
f 17/30/65 19/40/67 20/41/68 18/36/66
f 19/40/67 21/44/69 22/45/70 20/41/68
f 57/61/71 23/62/72 24/63/73 58/64/74
f 43/65/75 6/66/76 26/67/77 44/68/78
f 28/69/79 11/70/80 8/71/81 29/72/82
f 55/73/83 2/74/84 30/75/85 56/76/86
f 26/67/77 6/66/76 9/77/87 27/78/88
f 27/78/88 9/77/87 11/70/80 28/69/79
f 46/22/64 16/9/63 32/79/89 47/80/90
f 32/79/89 16/9/63 18/36/66 33/81/91
f 33/81/91 18/36/66 20/41/68 34/82/92
f 34/82/92 20/41/68 22/45/70 35/83/93
f 58/64/74 24/63/73 36/84/94 59/85/95
f 44/68/78 26/67/77 15/8/62 45/2/61
f 15/8/62 26/67/77 27/78/88 17/30/65
f 17/30/65 27/78/88 28/69/79 19/40/67
f 19/40/67 28/69/79 29/72/82 21/44/69
f 56/76/86 30/75/85 23/62/72 57/61/71
f 5/86/96 48/87/97 47/80/90 32/79/89
f 10/88/98 5/86/96 32/79/89 33/81/91
f 12/89/99 10/88/98 33/81/91 34/82/92
f 7/90/100 12/89/99 34/82/92 35/83/93
f 1/91/101 60/92/102 59/85/95 36/84/94
f 25/93/103 4/94/104 37/95/105 38/96/106
f 14/97/107 25/93/103 38/96/106 39/98/108
f 14/97/107 39/98/108 40/99/109 13/100/110
f 31/101/111 13/100/110 40/99/109 41/102/112
f 42/103/113 3/104/114 31/101/111 41/102/112
f 37/95/105 43/65/75 44/68/78 38/96/106
f 48/87/97 42/103/113 41/102/112 47/80/90
f 29/72/82 8/71/81 49/105/115 50/106/116
f 21/44/69 29/72/82 50/106/116 51/107/117
f 21/44/69 51/107/117 52/108/118 22/45/70
f 35/83/93 22/45/70 52/108/118 53/109/119
f 54/110/120 7/90/100 35/83/93 53/109/119
f 49/105/115 55/73/83 56/76/86 50/106/116
f 60/92/102 54/110/120 53/109/119 59/85/95
s off
f 45/177/121 46/178/122 62/3/123 61/1/124
f 57/179/125 58/180/126 72/23/127 71/20/128
f 24/63/129 23/62/130 74/111/131 73/112/132
f 6/4/133 43/7/134 75/11/135 78/13/136
f 8/37/137 11/43/138 82/49/139 81/55/140
f 30/75/141 2/74/142 86/113/143 85/114/144
f 2/127/145 55/128/146 83/129/147 86/130/148
f 9/133/149 6/4/150 78/13/151 88/134/152
f 11/43/153 9/133/154 88/134/155 82/49/156
f 46/178/157 47/181/158 89/52/159 62/3/160
f 58/180/161 59/182/162 94/59/163 72/23/164
f 36/84/165 24/63/166 73/112/167 95/115/168
f 44/183/169 45/177/170 61/1/171 76/28/172
f 56/184/173 57/179/174 71/20/175 84/39/176
f 23/62/177 30/75/178 85/114/179 74/111/180
f 48/17/181 5/19/182 96/21/183 97/24/184
f 5/19/185 10/42/186 98/48/187 96/21/188
f 10/42/189 12/54/190 99/60/191 98/48/192
f 12/54/193 7/140/194 100/141/195 99/60/196
f 1/91/197 36/84/198 95/115/199 101/116/200
f 60/142/201 1/143/202 101/144/203 102/146/204
f 37/147/205 4/159/206 106/131/207 105/132/208
f 4/94/209 25/93/210 103/117/211 106/118/212
f 39/185/213 38/186/214 104/153/215 107/163/216
f 25/93/217 14/97/218 108/119/219 103/117/220
f 14/97/221 13/100/222 109/120/223 108/119/224
f 40/187/225 39/185/226 107/163/227 110/166/228
f 41/188/229 40/187/230 110/166/231 112/168/232
f 13/100/233 31/101/234 111/125/235 109/120/236
f 31/101/237 3/104/238 114/126/239 111/125/240
f 3/158/241 42/164/242 113/138/243 114/145/244
f 38/186/245 44/183/246 76/28/247 104/153/248
f 43/7/249 37/147/250 105/132/251 75/11/252
f 47/181/253 41/188/254 112/168/255 89/52/256
f 42/164/257 48/17/258 97/24/259 113/138/260
f 49/135/261 8/37/262 81/55/263 116/137/264
f 51/157/265 50/156/266 115/171/267 117/173/268
f 52/155/269 51/157/270 117/173/271 118/174/272
f 53/154/273 52/155/274 118/174/275 119/175/276
f 7/140/277 54/148/278 120/149/279 100/141/280
f 50/156/281 56/184/282 84/39/283 115/171/284
f 55/128/285 49/135/286 116/137/287 83/129/288
f 59/182/289 53/154/290 119/175/291 94/59/292
f 54/148/293 60/142/294 102/146/295 120/149/296
